<!--?xml version="1.0" standalone="no"?-->
              <svg id="sw-js-blob-svg" viewBox="0 0 100 100" xmlns="http://www.w3.org/2000/svg" version="1.1">
                    <defs> 
                        <linearGradient id="sw-gradient" x1="0" x2="1" y1="1" y2="0">
                            <stop id="stop1" stop-color="rgba(238, 28, 38, 1)" offset="0%"></stop>
                            <stop id="stop2" stop-color="rgba(248.995, 128.083, 133.84, 1)" offset="100%"></stop>
                        </linearGradient>
                    </defs>
                <path fill="url(#sw-gradient)" d="M28.3,-31.6C36.1,-27.1,41.7,-17.7,42.4,-8.2C43.2,1.2,39.2,10.8,33.4,17.8C27.6,24.8,19.9,29.3,11.4,33.3C2.8,37.3,-6.7,40.9,-13.7,38.1C-20.8,35.4,-25.3,26.3,-29.3,17.7C-33.3,9.1,-36.8,1,-36.7,-7.7C-36.7,-16.5,-33.2,-26,-26.5,-30.7C-19.8,-35.4,-9.9,-35.4,0.2,-35.6C10.2,-35.8,20.4,-36.1,28.3,-31.6Z" width="100%" height="100%" transform="translate(50 50)" stroke-width="0" style="transition: 0.3s;"></path>
              </svg>