<svg enable-background="new 0 0 520 520" height="300" viewBox="0 0 520 520" width="300" xmlns="http://www.w3.org/2000/svg" version="1.1" xmlns:xlink="http://www.w3.org/1999/xlink" xmlns:svgjs="http://svgjs.dev/svgjs"><g width="100%" height="100%" transform="matrix(1,0,0,1,0,0)"><g id="_x37_25_x2C__Business_x2C__Connection_x2C__Global_x2C__Man_x2C__User"><g><path d="m204.77 288.651c21.854-10.71 36.94-33.179 36.94-59.112 0-36.276-29.513-65.79-65.79-65.79-36.276 0-65.789 29.513-65.789 65.79 0 25.933 15.087 48.402 36.939 59.111-55.941 13.091-97.729 63.385-97.729 123.258 0 16.362 3.108 32.333 9.237 47.469.764 1.888 2.598 3.123 4.634 3.123h225.414c2.036 0 3.869-1.235 4.634-3.122 6.131-15.132 9.239-31.103 9.239-47.47.001-59.873-41.787-110.167-97.729-123.257zm-4.099 102.028-24.75 24.75-24.75-24.75 24.75-82.876zm-80.539-161.139c0-30.763 25.027-55.79 55.789-55.79 30.763 0 55.79 25.027 55.79 55.79 0 30.762-25.027 55.79-55.79 55.79-30.762-.001-55.789-25.028-55.789-55.79zm165.075 222.96h-37.707v-40.592c0-2.762-2.239-5-5-5s-5 2.238-5 5v40.592h-120v-40.592c0-2.762-2.239-5-5-5s-5 2.238-5 5v40.592h-40.866c-4.84-13.004-7.292-26.643-7.292-40.592 0-62.008 48.665-112.855 109.807-116.375l-28.413 95.142c-.525 1.761-.044 3.667 1.255 4.966l30.395 30.395c1.953 1.953 5.118 1.953 7.071 0l30.395-30.395c1.299-1.299 1.781-3.205 1.255-4.966l-28.413-95.142c61.141 3.52 109.806 54.367 109.806 116.375 0 13.952-2.452 27.591-7.293 40.592z" fill="#ee1e27" fill-opacity="1" data-original-color="#000000ff" stroke="none" stroke-opacity="1"/><path d="m443.744 79.747c-41.513-42.991-110.122-43.01-151.65.02-.108.091-.317.175-.825.863-17.824 18.89-28.769 44.339-28.769 72.299 0 58.134 47.295 105.428 105.429 105.428 29.73 0 56.622-12.373 75.807-32.236.102-.084.445-.278.94-.987 38.287-40.671 38.218-103.838-.021-144.434-.499-.702-.811-.871-.911-.953zm-3.391 135.252c-6.329-6-13.27-11.119-20.681-15.309 3.436-12.893 5.433-27.052 5.799-41.76h37.756c-1.126 21.727-9.557 41.552-22.874 57.069zm-167.722-57.07h37.756c.366 14.711 2.362 28.872 5.801 41.767-7.41 4.19-14.35 9.311-20.678 15.309-13.32-15.518-21.752-35.346-22.879-57.076zm22.877-67.073c6.327 6.001 13.269 11.119 20.678 15.31-3.436 12.894-5.433 27.054-5.799 41.763h-37.756c1.127-21.729 9.558-41.556 22.877-57.073zm67.421 18.685c-12.181-.62-23.904-3.501-34.709-8.45 7.72-23.348 20.378-39.879 34.709-43.038zm0 10.009v28.379h-42.537c.359-13.196 2.132-25.778 5.009-37.141 11.72 5.167 24.385 8.157 37.528 8.762zm0 38.379v28.377c-13.138.606-25.805 3.598-37.527 8.767-2.878-11.364-4.65-23.947-5.01-37.144zm0 38.386v51.489c-14.33-3.159-26.987-19.688-34.708-43.034 10.808-4.949 22.532-7.834 34.708-8.455zm10 0c12.182.62 23.905 3.501 34.711 8.449-7.721 23.349-20.38 39.881-34.711 43.04zm0-10.009v-28.377h42.538c-.359 13.195-2.132 25.776-5.009 37.138-11.721-5.166-24.386-8.156-37.529-8.761zm0-38.377v-28.379c13.144-.605 25.81-3.595 37.529-8.761 2.877 11.362 4.649 23.944 5.009 37.14zm0-38.388v-51.487c14.331 3.159 26.989 19.69 34.71 43.039-10.805 4.947-22.529 7.829-34.71 8.448zm24.72-47.296c13.509 4.438 25.697 11.814 35.804 21.373-5.169 4.897-10.79 9.145-16.766 12.713-4.167-12.125-10.342-24.599-19.038-34.086zm-78.478 34.084c-5.976-3.568-11.596-7.815-16.765-12.712 10.105-9.559 22.293-16.934 35.803-21.372-8.695 9.485-14.868 21.956-19.038 34.084zm.001 113.203c4.169 12.122 10.34 24.594 19.037 34.081-13.508-4.438-25.695-11.812-35.801-21.369 5.169-4.895 10.788-9.143 16.764-12.712zm97.516-.006c5.977 3.568 11.598 7.815 16.767 12.713-10.106 9.56-22.296 16.936-35.807 21.374 8.699-9.489 14.871-21.962 19.04-34.087zm8.784-61.597c-.366-14.71-2.362-28.869-5.8-41.762 7.41-4.191 14.352-9.31 20.679-15.31 13.318 15.517 21.75 35.343 22.877 57.072z" fill="#ee1e27" fill-opacity="1" data-original-color="#000000ff" stroke="none" stroke-opacity="1"/><path d="m80 142.5c20.678 0 37.5-16.822 37.5-37.5s-16.822-37.5-37.5-37.5-37.5 16.822-37.5 37.5 16.822 37.5 37.5 37.5zm0-65c15.164 0 27.5 12.336 27.5 27.5s-12.336 27.5-27.5 27.5-27.5-12.336-27.5-27.5 12.336-27.5 27.5-27.5z" fill="#ee1e27" fill-opacity="1" data-original-color="#000000ff" stroke="none" stroke-opacity="1"/><path d="m407.5 362.5c-27.57 0-50 22.43-50 50s22.43 50 50 50 50-22.43 50-50-22.43-50-50-50zm0 90c-22.056 0-40-17.944-40-40s17.944-40 40-40 40 17.944 40 40-17.944 40-40 40z" fill="#ee1e27" fill-opacity="1" data-original-color="#000000ff" stroke="none" stroke-opacity="1"/><circle cx="205" cy="75" r="7.5" fill="#ee1e27" fill-opacity="1" data-original-color="#000000ff" stroke="none" stroke-opacity="1"/><circle cx="470" cy="55" r="7.5" fill="#ee1e27" fill-opacity="1" data-original-color="#000000ff" stroke="none" stroke-opacity="1"/><circle cx="70" cy="180" r="7.5" fill="#ee1e27" fill-opacity="1" data-original-color="#000000ff" stroke="none" stroke-opacity="1"/><circle cx="270" cy="265" r="7.5" fill="#ee1e27" fill-opacity="1" data-original-color="#000000ff" stroke="none" stroke-opacity="1"/><circle cx="465" cy="275" r="7.5" fill="#ee1e27" fill-opacity="1" data-original-color="#000000ff" stroke="none" stroke-opacity="1"/><circle cx="390" cy="320" r="7.5" fill="#ee1e27" fill-opacity="1" data-original-color="#000000ff" stroke="none" stroke-opacity="1"/><circle cx="340" cy="465" r="7.5" fill="#ee1e27" fill-opacity="1" data-original-color="#000000ff" stroke="none" stroke-opacity="1"/><circle cx="50" cy="290" r="7.5" fill="#ee1e27" fill-opacity="1" data-original-color="#000000ff" stroke="none" stroke-opacity="1"/></g></g></g></svg>