<svg id="Layer_5" enable-background="new 0 0 64 64" height="300" viewBox="0 0 64 64" width="300" xmlns="http://www.w3.org/2000/svg" version="1.1" xmlns:xlink="http://www.w3.org/1999/xlink" xmlns:svgjs="http://svgjs.dev/svgjs"><g width="100%" height="100%" transform="matrix(1,0,0,1,0,0)"><g><path d="m13.035 7.035c-3.309 0-6 2.691-6 6s2.691 6 6 6 6-2.691 6-6-2.691-6-6-6zm0 10c-2.206 0-4-1.794-4-4s1.794-4 4-4 4 1.794 4 4-1.794 4-4 4z" fill="#ee1e27" fill-opacity="1" data-original-color="#000000ff" stroke="none" stroke-opacity="1"/><path d="m57.707 48.707-1.414-1.414-7.293 7.293-1.293-1.293-1.414 1.414 2.707 2.707z" fill="#ee1e27" fill-opacity="1" data-original-color="#000000ff" stroke="none" stroke-opacity="1"/><path d="m35 12h2v2h-2z" fill="#ee1e27" fill-opacity="1" data-original-color="#000000ff" stroke="none" stroke-opacity="1"/><path d="m47 12h2v2h-2z" fill="#ee1e27" fill-opacity="1" data-original-color="#000000ff" stroke="none" stroke-opacity="1"/><path d="m43 12h2v2h-2z" fill="#ee1e27" fill-opacity="1" data-original-color="#000000ff" stroke="none" stroke-opacity="1"/><path d="m39 12h2v2h-2z" fill="#ee1e27" fill-opacity="1" data-original-color="#000000ff" stroke="none" stroke-opacity="1"/><path d="m24 37h16c1.654 0 3-1.346 3-3v-1h13c3.859 0 7-3.14 7-7v-7c0-3.86-3.141-7-7-7h-3v-1c0-1.654-1.346-3-3-3h-16c-1.654 0-3 1.346-3 3v1h-5.965v-1.728l-2.625-.717c-.086-.23-.182-.459-.286-.685l1.351-2.366-3.908-3.908-2.365 1.35c-.227-.104-.455-.2-.685-.286l-.718-2.625h-5.527l-.718 2.625c-.23.086-.458.181-.684.286l-2.366-1.35-3.908 3.908 1.35 2.366c-.104.226-.2.455-.286.685l-2.625.717v5.526l2.625.718c.086.23.182.459.286.685l-1.351 2.366 3.908 3.907 2.366-1.35c.226.104.454.2.684.286l.718 2.625h5.527l.718-2.625c.229-.086.458-.182.685-.286l2.365 1.349 3.908-3.907-1.351-2.366c.104-.226.2-.455.286-.685l2.625-.718v-1.797h5.966v1c0 1.654 1.346 3 3 3h16c1.654 0 3-1.346 3-3v-1h3c2.757 0 5 2.243 5 5v7c0 2.757-2.243 5-5 5h-13v-1c0-1.654-1.346-3-3-3h-16c-1.654 0-3 1.346-3 3v1h-13c-3.859 0-7 3.141-7 7v8c0 3.859 3.141 7 7 7h3v1c0 1.654 1.346 3 3 3h16c1.654 0 3-1.346 3-3v-1h8.051c.507 5.598 5.221 10 10.949 10 6.065 0 11-4.935 11-11s-4.935-11-11-11c-5.728 0-10.442 4.402-10.949 10h-8.051v-1c0-1.654-1.346-3-3-3h-16c-1.654 0-3 1.346-3 3v1h-3c-2.757 0-5-2.243-5-5v-8c0-2.757 2.243-5 5-5h13v1c0 1.654 1.346 3 3 3zm-.965-22.728-2.193.6-.161.525c-.144.463-.336.924-.572 1.37l-.258.486 1.13 1.979-1.748 1.749-1.98-1.129-.485.257c-.445.236-.906.428-1.37.571l-.524.162-.601 2.193h-2.473l-.601-2.193-.524-.162c-.462-.143-.923-.334-1.37-.571l-.486-.257-1.979 1.129-1.75-1.749 1.13-1.979-.258-.486c-.236-.446-.429-.907-.572-1.37l-.161-.525-2.193-.6v-2.474l2.193-.599.162-.525c.143-.463.335-.924.571-1.369l.258-.487-1.13-1.979 1.748-1.749 1.979 1.129.486-.257c.449-.237.91-.43 1.37-.572l.524-.162.601-2.193h2.473l.601 2.193.524.162c.462.143.923.335 1.37.572l.485.257 1.98-1.129 1.748 1.749-1.13 1.979.258.486c.236.445.429.906.571 1.369l.162.525 2.193.599v2.475zm27.965.728c0 .551-.448 1-1 1h-16c-.552 0-1-.449-1-1v-4c0-.551.448-1 1-1h16c.552 0 1 .449 1 1zm1 28c4.963 0 9 4.037 9 9s-4.037 9-9 9-9-4.037-9-9 4.037-9 9-9zm-39 7c0-.552.448-1 1-1h16c.552 0 1 .448 1 1v4c0 .552-.448 1-1 1h-16c-.552 0-1-.448-1-1zm10-20c0-.551.448-1 1-1h16c.552 0 1 .449 1 1v4c0 .552-.448 1-1 1h-16c-.552 0-1-.448-1-1z" fill="#ee1e27" fill-opacity="1" data-original-color="#000000ff" stroke="none" stroke-opacity="1"/><path d="m33 31h2v2h-2z" fill="#ee1e27" fill-opacity="1" data-original-color="#000000ff" stroke="none" stroke-opacity="1"/><path d="m29 31h2v2h-2z" fill="#ee1e27" fill-opacity="1" data-original-color="#000000ff" stroke="none" stroke-opacity="1"/><path d="m25 31h2v2h-2z" fill="#ee1e27" fill-opacity="1" data-original-color="#000000ff" stroke="none" stroke-opacity="1"/><path d="m37 31h2v2h-2z" fill="#ee1e27" fill-opacity="1" data-original-color="#000000ff" stroke="none" stroke-opacity="1"/><path d="m19 51h2v2h-2z" fill="#ee1e27" fill-opacity="1" data-original-color="#000000ff" stroke="none" stroke-opacity="1"/><path d="m27 51h2v2h-2z" fill="#ee1e27" fill-opacity="1" data-original-color="#000000ff" stroke="none" stroke-opacity="1"/><path d="m23 51h2v2h-2z" fill="#ee1e27" fill-opacity="1" data-original-color="#000000ff" stroke="none" stroke-opacity="1"/><path d="m15 51h2v2h-2z" fill="#ee1e27" fill-opacity="1" data-original-color="#000000ff" stroke="none" stroke-opacity="1"/></g></g></svg>