<svg id="Layer_1" enable-background="new 0 0 512 512" viewBox="0 0 512 512" xmlns="http://www.w3.org/2000/svg" width="300" height="300" version="1.1" xmlns:xlink="http://www.w3.org/1999/xlink" xmlns:svgjs="http://svgjs.dev/svgjs"><g width="100%" height="100%" transform="matrix(1,0,0,1,0,0)"><path d="m201.07 283.01c-31.62 0-57.35 25.73-57.35 57.35s25.73 57.35 57.35 57.35 57.35-25.73 57.35-57.35-25.73-57.35-57.35-57.35zm44.94 51.35h-16.87c-.71-14.08-3.89-26.27-8.75-35.02 13.64 6.45 23.56 19.51 25.62 35.02zm-44.94 49.32c-6.1 0-14.74-14.35-16.05-37.32h32.1c-1.31 22.97-9.95 37.32-16.05 37.32zm-16.05-49.32c1.31-22.97 9.95-37.32 16.05-37.32s14.74 14.35 16.05 37.32zm-3.28-35.02c-4.86 8.74-8.04 20.94-8.75 35.02h-16.87c2.06-15.51 11.98-28.57 25.62-35.02zm-25.62 47.02h16.87c.71 14.08 3.89 26.27 8.75 35.02-13.64-6.45-23.56-19.51-25.62-35.02zm64.27 35.02c4.86-8.75 8.04-20.94 8.75-35.02h16.87c-2.06 15.51-11.98 28.57-25.62 35.02zm34.34 71.99c0 3.31-2.69 6-6 6h-95.33c-3.31 0-6-2.69-6-6s2.69-6 6-6h95.32c3.32 0 6.01 2.68 6.01 6zm-88.7-22.64c-3.31 0-6-2.69-6-6s2.69-6 6-6h70.08c3.31 0 6 2.69 6 6s-2.69 6-6 6zm283.24-355.06h-34.25v-32c0-15.81-12.86-28.67-28.67-28.67h-129.22c-15.81 0-28.67 12.86-28.67 28.67v31.99h-34.25c-26.32 0-47.73 21.41-47.73 47.73v107.93l-22.47-22.47c-3.35-3.35-7.82-5.2-12.59-5.2-4.76 0-9.23 1.85-12.59 5.2l-78.63 78.65c-3.35 3.35-5.2 7.82-5.2 12.59s1.85 9.23 5.2 12.59l98.18 98.18v66.73c0 10.71 8.71 19.42 19.42 19.42h126.52c10.71 0 19.42-8.71 19.42-19.42v-137.2h165.52c26.32 0 47.73-21.41 47.73-47.73v-169.26c.01-26.32-21.4-47.73-47.72-47.73zm-208.81-32c0-9.19 7.48-16.67 16.67-16.67h129.22c9.19 0 16.67 7.48 16.67 16.67v31.99h-162.56zm208.81 44c9.54 0 18.2 3.76 24.62 9.87-18.48 41.21-55.82 73.26-101.26 87.02-5.51-14.99-19.93-25.71-36.8-25.71h-28.16c-16.88 0-31.3 10.72-36.8 25.71-45.44-13.76-82.78-45.81-101.27-87.02 6.41-6.11 15.08-9.87 24.62-9.87zm-86.26 110.37c0 14.99-12.2 27.19-27.19 27.19h-28.16c-14.99 0-27.19-12.2-27.19-27.19s12.2-27.19 27.19-27.19h28.16c14.99 0 27.19 12.2 27.19 27.19zm-255.69 19.3c1.09-1.09 2.54-1.68 4.1-1.68s3.01.6 4.1 1.68l33.86 33.86h-11.58c-8.56 0-15.83 5.57-18.41 13.28l-29.61-29.61zm11.06 116.3-63.68-63.68 26.6-26.6 37.08 37.08zm-89.7-29.46c-1.09-1.09-1.68-2.54-1.68-4.1s.6-3.01 1.68-4.1l17.53-17.53 72.17 72.17v43.27zm243.07 173.4c0 4.09-3.33 7.42-7.42 7.42h-126.52c-4.09 0-7.42-3.33-7.42-7.42v-206.95c0-4.09 3.33-7.42 7.42-7.42h126.52c4.09 0 7.42 3.33 7.42 7.42zm213.25-184.92c0 19.7-16.03 35.73-35.73 35.73h-165.52v-57.76c0-10.71-8.71-19.42-19.42-19.42h-97.97l-7.88-7.88v-119.93c0-5.22 1.14-10.18 3.16-14.66 20.93 41.66 59.95 73.78 106.87 87.66-.02.55-.04 1.09-.04 1.64 0 21.61 17.58 39.19 39.19 39.19h28.16c21.61 0 39.19-17.58 39.19-39.19 0-.55-.02-1.1-.04-1.64 46.92-13.88 85.94-46.01 106.87-87.66 2.02 4.48 3.16 9.44 3.16 14.66z" fill="#ee1e27" fill-opacity="1" data-original-color="#000000ff" stroke="none" stroke-opacity="1"/></g></svg>