<svg id="Layer_1" viewBox="0 0 64 64" xmlns="http://www.w3.org/2000/svg" data-name="Layer 1" width="300" height="300" version="1.1" xmlns:xlink="http://www.w3.org/1999/xlink" xmlns:svgjs="http://svgjs.dev/svgjs"><g width="100%" height="100%" transform="matrix(1,0,0,1,0,0)"><path d="m15.16 20.55a.75.75 0 0 0 .25.25s0 0 0 0l.18.08h.08a1 1 0 0 0 .33.12 1 1 0 0 0 .25 0h.08l.18-.08s0 0 0 0a.75.75 0 0 0 .25-.25l2-3a1 1 0 0 0 -.28-1.38 1 1 0 0 0 -1.3.2 15 15 0 0 1 29.28-1.12 1 1 0 1 0 1.93-.5 17 17 0 0 0 -33.32 2.16l-.31-.46a1 1 0 1 0 -1.66 1.1z" fill="#ee1e27" fill-opacity="1" data-original-color="#000000ff" stroke="none" stroke-opacity="1"/><path d="m48.55 17.17a.82.82 0 0 0 -.36-.15h-.38a1 1 0 0 0 -.64.43l-2 3a1 1 0 0 0 .28 1.38.94.94 0 0 0 .55.17 1 1 0 0 0 .75-.35 15 15 0 0 1 -29.28 1.1 1 1 0 0 0 -1.22-.75 1 1 0 0 0 -.71 1.22 17 17 0 0 0 33.32-2.16l.31.46a1 1 0 0 0 .83.48.94.94 0 0 0 .55-.17 1 1 0 0 0 .28-1.38l-2-3a.77.77 0 0 0 -.15-.16.5.5 0 0 0 -.13-.12z" fill="#ee1e27" fill-opacity="1" data-original-color="#000000ff" stroke="none" stroke-opacity="1"/><path d="m13 62a11 11 0 1 0 -11-11 11 11 0 0 0 11 11zm9-11a9 9 0 0 1 -8 8.94v-2.08a4 4 0 0 0 -1-7.86 2 2 0 1 1 2-2 1 1 0 0 0 2 0 4 4 0 0 0 -3-3.86v-2.08a9 9 0 0 1 8 8.94zm-10-8.94v2.08a4 4 0 0 0 1 7.86 2 2 0 1 1 -2 2 1 1 0 0 0 -2 0 4 4 0 0 0 3 3.86v2.08a9 9 0 0 1 0-17.88z" fill="#ee1e27" fill-opacity="1" data-original-color="#000000ff" stroke="none" stroke-opacity="1"/><path d="m27 43a1 1 0 0 0 1 1h4.7l-.25.17a1 1 0 0 0 .55 1.83.94.94 0 0 0 .55-.17l3-2a.58.58 0 0 0 .12-.1.8.8 0 0 0 .18-.27v-.07a.91.91 0 0 0 0-.7v-.07a.8.8 0 0 0 -.18-.27.58.58 0 0 0 -.12-.1l-3-2a1 1 0 1 0 -1.1 1.66l.25.17h-4.7a1 1 0 0 0 -1 .92z" fill="#ee1e27" fill-opacity="1" data-original-color="#000000ff" stroke="none" stroke-opacity="1"/><path d="m27 59a1 1 0 0 0 .07.35v.07a.8.8 0 0 0 .18.27.58.58 0 0 0 .12.1l3 2a.94.94 0 0 0 .63.21 1 1 0 0 0 .55-1.83l-.25-.17h4.7a1 1 0 0 0 0-2h-4.7l.25-.17a1 1 0 1 0 -1.1-1.66l-3 2a.58.58 0 0 0 -.12.1.8.8 0 0 0 -.18.27v.07a1 1 0 0 0 -.15.39z" fill="#ee1e27" fill-opacity="1" data-original-color="#000000ff" stroke="none" stroke-opacity="1"/><path d="m37 31a3 3 0 0 0 3-3v-18a3 3 0 0 0 -3-3h-10a3 3 0 0 0 -3 3v18a3 3 0 0 0 3 3zm-11-18h12v12h-12zm1-4h10a1 1 0 0 1 1 1v1h-12v-1a1 1 0 0 1 1-1zm-1 19v-1h12v1a1 1 0 0 1 -1 1h-10a1 1 0 0 1 -1-1z" fill="#ee1e27" fill-opacity="1" data-original-color="#000000ff" stroke="none" stroke-opacity="1"/><path d="m59.2 40h-16.2a3 3 0 0 0 -3 3v4a1 1 0 0 0 1 1h3v13a1 1 0 0 0 .53.88 1 1 0 0 0 1-.05l2.32-1.54 1.42 1.42a1 1 0 0 0 1.26.12l2.47-1.63 2.45 1.63a1 1 0 0 0 .55.17 1 1 0 0 0 .71-.29l1.42-1.42 2.32 1.54a1 1 0 0 0 1 .05 1 1 0 0 0 .55-.88v-18.2a2.81 2.81 0 0 0 -2.8-2.8zm-17.2 6v-3a1 1 0 0 1 2 0v3zm18 13.13-1.45-1a1 1 0 0 0 -1.26.12l-1.42 1.42-2.32-1.54a1 1 0 0 0 -1.1 0l-2.32 1.54-1.42-1.42a1 1 0 0 0 -1.26-.12l-1.45 1v-16.13a3 3 0 0 0 -.18-1h13.38a.8.8 0 0 1 .8.8z" fill="#ee1e27" fill-opacity="1" data-original-color="#000000ff" stroke="none" stroke-opacity="1"/><path d="m57 44h-8a1 1 0 0 0 0 2h8a1 1 0 0 0 0-2z" fill="#ee1e27" fill-opacity="1" data-original-color="#000000ff" stroke="none" stroke-opacity="1"/><path d="m57 48h-8a1 1 0 0 0 0 2h8a1 1 0 0 0 0-2z" fill="#ee1e27" fill-opacity="1" data-original-color="#000000ff" stroke="none" stroke-opacity="1"/><path d="m57 52h-8a1 1 0 0 0 0 2h8a1 1 0 0 0 0-2z" fill="#ee1e27" fill-opacity="1" data-original-color="#000000ff" stroke="none" stroke-opacity="1"/></g></svg>